<svg xmlns="http://www.w3.org/2000/svg" version="1.1" xmlns:xlink="http://www.w3.org/1999/xlink" xmlns:svgjs="http://svgjs.dev/svgjs" width="2000" height="2250" viewBox="0 0 2000 2250"><g transform="matrix(1,0,0,1,0.00014687500004129106,0)"><svg viewBox="0 0 320 360" data-background-color="#ffffff" preserveAspectRatio="xMidYMid meet" height="2250" width="2000" xmlns="http://www.w3.org/2000/svg" xmlns:xlink="http://www.w3.org/1999/xlink"><g id="tight-bounds" transform="matrix(1,0,0,1,0.000023499999997511622,0)"><svg viewBox="0 0 320 360" height="360" width="320"><g><svg></svg></g><g><svg viewBox="0 0 320 360" height="360" width="320"><g><path transform="translate(-74.99272,-51.79039) scale(4.65793,4.65793)" d="M20.6 59.9l0.8 1-0.4-1.3c-0.1-0.6-0.8 0.1-0.4 0.3M21.5 59.3c0.3 0.5 0.6 1 0.6 1.5 0 0.7 0.6 1 1.1 1.2-0.7-0.8-1.1-3-1.7-2.7M59.9 16.9c1.7 0 3.3-0.2 5.1 0.2 4.4 1.1 8.1 3.3 10.6 6.4l7 11.2c0.3 2.8 0.9 5.9 0.8 9.3 0.7 0 0.6-1 1.4-1.2-0.8 2-1.2 4.5-1.4 7.4-0.5-1.6 0-4 0.1-5.3-0.7 1.1-1.1 0.3-1.1-0.2 0.1-0.8-0.3-0.7-0.6-1-1.1-1-1.8-2.1-2.6-3.8 0.5-1.3 0.6-3.2-1-4.2-0.5-0.3-1.1-0.8-1.4-1.6-0.4-1.1-1.1-2.4-0.9-4.1 0.1-0.5-1.5 1.1-2.4 0.4-3.9-2.7-7.8-5.8-12.5-8.4-2.5 0-4.3-0.9-5.2-2-0.8-1-0.2-2.3 1-2.4 0.7 0 1.5-0.2 2.1 0.2 0.1-0.4 0.5-0.9 1-0.9M50 14.6l0.2 0.1c1 0.2 1.5 1.6 2.6 1.1 0 0.7 0.1 1.4-0.1 1.9-0.3 0.8-1.2 0.8-1.9 0.8-6.7-0.4-10.6 2.4-14.7 4.8-1.1 0.7-2.3 1.2-3.2 2.1-4.3 4-9 7.7-10.1 15.1l-0.9 8.2c-0.1 0.9-1.1 1.8-0.9 2.9l0.7 4.9c-0.7-0.7-1.1 0.2-0.9 0.6 0.1 0.3 0.5 1.3 1.1 0.4 0.8 1.5 1.6 4.4 2.7 5.7 3.4 4 7.8 7.6 11.4 11.2 0.9-0.2 1.6-0.2 1.8-0.8 0.3 0.6-0.3 1.2-0.8 1.3 1.6 1 3.4 1.9 5.8 2.1 3.1 0.2 6 0.7 8.7 1.4 1.4-0.4 2.8-0.6 4.3-0.7 0.5 0 0.8-0.8 1.4-1l0.1-1c0.6 0.9 0.5-0.3 0.1-0.9 0.7 0.6 0.9 1.1 1.2 1.5 0-0.3 0.8-1.4 0.8-0.1l0.2-1.3c0.3-0.2 0.4 1.1 0.7 0.2 0.3-0.9 0.9-0.2 1.5-0.5-0.2 0.4-0.1 1.2 0.6 0.7l0.8-0.7c0.5 1.2 1.3 0.7 1.7 0.5 4.4-2.8 8.8-6.1 13-9.4l-0.1 1.3 0.5-1.6c0.5 0.5 0.9 0.1 1.1-0.2 0.6-1 1.4-2 2.7-2.9-1.6 4.3-3.5 7.7-5.9 10.5l-1 1.2c0 0.7-0.2 1.6-1 1.7-0.4 0.1-1.2-0.2-1.8 0.4-0.3 0.4 0.7 1.2-0.1 0.6-0.7-0.5-1.4 0-2.2 0.2-0.6 0.2 0.4 0.8 0.6 1.2 0.2 0.4 0.4 0.8 0.3 1.3l-1.1-1.2c-1.3 0.7-2.1 2-3.2 3-0.5 0.4-0.3 1.1-0.3 1.7-0.7 0-1.5-0.2-1.9 0.2-0.3 0.4-0.2 1-0.2 1.6-1-0.1-1.1-1.6-2-1.3-0.9 0.2-1.9 0.3-2.7 0.8 0.6 1.2-1 0.5-0.8 0.7-1.5-0.9-2.8-1.6-4.4-1-3.4-1.1-7.6-0.6-10.7-0.2 0-0.5 0.1-1-0.1-1.1-0.2 0.5-0.8 0.3-0.7 0.3-1.9-1.3-3.8-2.1-5.8-3.2-1.8 0.2-3.5-0.7-4-1.2-1.4-1.3-3-0.6-4.3-0.9-2.8-0.7-3.8-3.6-4.1-5.6-0.2-1-1-1.4-1.3-1.3-1.3-4.2-3.3-8-4.9-11.9-0.4-1-0.3-2-0.3-3.1 0.5 0.2 1 0.1 0.9-0.6-0.5-3.3-1.7-5.8-3-8.2 0.7-3.4 0.8-7.4 2.4-10.4 1.4-2.7 4-4.1 5.8-6.4 0.6-0.8 0.6-1.9 1.2-2.6 2-2 4-4.1 6.2-5.9 1-0.8 2.2 0 3.7-0.3 0.5-1.8 2.5-3.4 4.4-2.9 0.8 0.2 2.4-1.9 2.9-2.1 0.8-0.3 0.4 0.8 0.4 1.5 1.9-1.5 4.5-2.3 6.9-3.2" fill="#03424c" fill-rule="nonzero" stroke="none" stroke-width="1" stroke-linecap="butt" stroke-linejoin="miter" stroke-miterlimit="10" stroke-dasharray="" stroke-dashoffset="0" font-family="none" font-weight="none" font-size="none" text-anchor="none" style="mix-blend-mode: normal" data-fill-palette-color="tertiary"></path></g><g transform="matrix(1,0,0,1,64,117.57439715574)"><svg viewBox="0 0 192 124.85120568852001" height="124.85120568852001" width="192"><g><svg viewBox="0 0 192 124.85120568852001" height="124.85120568852001" width="192"><g><svg viewBox="0 0 192 124.85120568852001" height="124.85120568852001" width="192"><g transform="matrix(1,0,0,1,0,74.37474197779339)"><svg viewBox="0 0 192 50.47646371072662" height="50.47646371072662" width="192"><g id="textblocktransform"><svg viewBox="0 0 192 50.47646371072662" height="50.47646371072662" width="192" id="textblock"><g><svg viewBox="0 0 192 31.634749113025855" height="31.634749113025855" width="192"><g transform="matrix(1,0,0,1,0,0)"><svg width="192" viewBox="2.35 -34.05 274.001818180712 45.15" height="31.634749113025855" data-palette-color="#03424c"><path d="M26.1-3.6L26.1-8.55Q26.1-8.7 26.1-8.85 26.1-9 26.1-9.15L26.1-9.15Q26.1-10.1 26.08-10.88 26.05-11.65 25.9-12.15L25.9-12.15Q25.85-12.45 25.13-12.63 24.4-12.8 23.63-12.88 22.85-12.95 22.55-12.95L22.55-12.95Q22.4-13.15 22.38-13.65 22.35-14.15 22.55-14.35L22.55-14.35Q24.05-14.3 25.45-14.2 26.85-14.1 28.25-14.1L28.25-14.1Q29.7-14.1 30.98-14.2 32.25-14.3 33.75-14.35L33.75-14.35Q33.95-14.15 33.93-13.65 33.9-13.15 33.75-12.95L33.75-12.95Q33.45-12.95 32.7-12.88 31.95-12.8 31.3-12.63 30.65-12.45 30.55-12.15L30.55-12.15Q30.35-11.55 30.33-10.6 30.3-9.65 30.3-8.55L30.3-8.55 30.3-5.1Q30.3-4.3 30.55-3.9 30.8-3.5 30.8-3.1L30.8-3.1Q30.8-2.9 30.65-2.75 30.5-2.6 29.85-2.25L29.85-2.25Q28.8-1.7 27.43-1.1 26.05-0.5 23.98-0.1 21.9 0.3 18.65 0.3L18.65 0.3Q15.05 0.3 12.05-0.98 9.05-2.25 6.88-4.48 4.7-6.7 3.53-9.58 2.35-12.45 2.35-15.7L2.35-15.7Q2.35-19.15 3.58-22.18 4.8-25.2 7-27.55 9.2-29.9 12.23-31.23 15.25-32.55 18.85-32.55L18.85-32.55Q21.25-32.55 23.88-32.35 26.5-32.15 29.2-31.55L29.2-31.55Q29.2-31.55 29.38-30.53 29.55-29.5 29.75-28.13 29.95-26.75 30.13-25.63 30.3-24.5 30.3-24.3L30.3-24.3Q30.35-24.1 30-23.9 29.65-23.7 29.25-23.7L29.25-23.7Q28.9-23.7 28.65-23.85L28.65-23.85Q28.55-24.4 28.18-25.55 27.8-26.7 26.83-27.95 25.85-29.2 24-30.08 22.15-30.95 19.1-30.95L19.1-30.95Q16.4-30.95 14.2-29.73 12-28.5 10.43-26.43 8.85-24.35 8.03-21.83 7.2-19.3 7.2-16.75L7.2-16.75Q7.2-13.9 7.98-11.15 8.75-8.4 10.33-6.18 11.9-3.95 14.28-2.63 16.65-1.3 19.85-1.3L19.85-1.3Q21.75-1.3 23.23-1.83 24.7-2.35 25.8-2.9L25.8-2.9Q26.05-3 26.08-3.18 26.1-3.35 26.1-3.6L26.1-3.6ZM47.55-21.45L47.55-21.45Q50.8-21.45 53.12-20.05 55.45-18.65 56.72-16.25 58-13.85 58-10.8L58-10.8Q58-7.65 56.65-5.13 55.3-2.6 52.95-1.13 50.6 0.35 47.65 0.35L47.65 0.35Q44.45 0.35 42.07-1.07 39.7-2.5 38.42-4.93 37.15-7.35 37.15-10.4L37.15-10.4Q37.15-13.55 38.52-16.05 39.9-18.55 42.25-20 44.6-21.45 47.55-21.45ZM47-19.8L47-19.8Q44.95-19.8 43.7-18.57 42.45-17.35 41.9-15.43 41.35-13.5 41.35-11.4L41.35-11.4Q41.35-9.05 42.12-6.7 42.9-4.35 44.42-2.8 45.95-1.25 48.15-1.25L48.15-1.25Q50.25-1.25 51.47-2.48 52.7-3.7 53.25-5.65 53.8-7.6 53.8-9.65L53.8-9.65Q53.8-12.05 53-14.38 52.2-16.7 50.7-18.25 49.2-19.8 47-19.8ZM64.45-20.75L64.45-20.75Q65.85-20.75 66.87-20.85 67.9-20.95 69.35-21L69.35-21Q69.45-20.8 69.4-20.2 69.35-19.6 69.15-19.6L69.15-19.6Q69-19.6 68.4-19.55 67.8-19.5 67.27-19.33 66.75-19.15 66.75-18.75L66.75-18.75Q66.75-18.65 66.8-18.55L66.8-18.55 72.15-5.35Q72.15-5.35 72.55-6.43 72.95-7.5 73.62-9.18 74.3-10.85 75.05-12.8 75.8-14.75 76.5-16.45L76.5-16.45Q76.7-16.9 76.75-17.32 76.8-17.75 76.8-18L76.8-18Q76.8-18.75 76-19.18 75.2-19.6 73.95-19.6L73.95-19.6Q73.75-19.6 73.75-20.2 73.75-20.8 73.95-21L73.95-21Q75.1-20.95 75.75-20.85 76.4-20.75 77.9-20.75L77.9-20.75Q79.3-20.75 80.15-20.85 81-20.95 82.45-21L82.45-21Q82.6-20.8 82.52-20.2 82.45-19.6 82.3-19.6L82.3-19.6Q82.1-19.6 81.47-19.45 80.85-19.3 80.2-18.95 79.55-18.6 79.25-17.9L79.25-17.9Q78.15-15.3 77.27-13.2 76.4-11.1 75.57-9.13 74.75-7.15 73.85-5.03 72.95-2.9 71.9-0.3L71.9-0.3Q71.8 0 71.35 0.28 70.9 0.55 70.65 0.55L70.65 0.55Q70.3 0.55 70.2 0.35L70.2 0.35Q67.85-5.3 66.07-9.9 64.3-14.5 62.25-18.6L62.25-18.6Q61.9-19.35 61-19.48 60.1-19.6 59.65-19.6L59.65-19.6Q59.55-19.6 59.55-19.6L59.55-19.6Q59.5-19.8 59.45-20.23 59.4-20.65 59.55-21L59.55-21Q61.05-20.95 62-20.85 62.95-20.75 64.45-20.75ZM90.19-32.1L90.19-32.1Q91.64-32.1 93.04-32.18 94.44-32.25 95.94-32.3L95.94-32.3Q96.14-32.1 96.12-31.6 96.09-31.1 95.94-30.9L95.94-30.9Q95.64-30.9 94.84-30.83 94.04-30.75 93.34-30.6 92.64-30.45 92.54-30.15L92.54-30.15Q92.34-29.55 92.32-28.58 92.29-27.6 92.29-26.5L92.29-26.5 92.29-5.9Q92.29 0.2 90.82 3.95 89.34 7.7 86.77 9.4 84.19 11.1 80.89 11.1L80.89 11.1Q80.34 11.1 79.29 10.83 78.24 10.55 77.79 10.2L77.79 10.2Q77.39 9.8 77.39 9.1L77.39 9.1Q77.39 7.95 77.99 7.15 78.59 6.35 79.74 6.35L79.74 6.35Q80.44 6.35 81.02 6.83 81.59 7.3 82.09 7.75L82.09 7.75Q82.49 8.1 83.07 8.45 83.64 8.8 84.29 8.8L84.29 8.8Q85.04 8.8 85.74 8.18 86.44 7.55 86.94 6 87.44 4.45 87.74 1.6 88.04-1.25 88.04-5.65L88.04-5.65 88.04-26.5Q88.04-27.6 88.02-28.58 87.99-29.55 87.79-30.15L87.79-30.15Q87.74-30.45 87.02-30.6 86.29-30.75 85.52-30.83 84.74-30.9 84.44-30.9L84.44-30.9Q84.29-31.1 84.27-31.6 84.24-32.1 84.44-32.3L84.44-32.3Q85.94-32.25 87.37-32.18 88.79-32.1 90.19-32.1ZM109.09-21.45L109.09-21.45Q112.34-21.45 114.67-20.05 116.99-18.65 118.27-16.25 119.54-13.85 119.54-10.8L119.54-10.8Q119.54-7.65 118.19-5.13 116.84-2.6 114.49-1.13 112.14 0.35 109.19 0.35L109.19 0.35Q105.99 0.35 103.62-1.07 101.24-2.5 99.97-4.93 98.69-7.35 98.69-10.4L98.69-10.4Q98.69-13.55 100.07-16.05 101.44-18.55 103.79-20 106.14-21.45 109.09-21.45ZM108.54-19.8L108.54-19.8Q106.49-19.8 105.24-18.57 103.99-17.35 103.44-15.43 102.89-13.5 102.89-11.4L102.89-11.4Q102.89-9.05 103.67-6.7 104.44-4.35 105.97-2.8 107.49-1.25 109.69-1.25L109.69-1.25Q111.79-1.25 113.02-2.48 114.24-3.7 114.79-5.65 115.34-7.6 115.34-9.65L115.34-9.65Q115.34-12.05 114.54-14.38 113.74-16.7 112.24-18.25 110.74-19.8 108.54-19.8ZM131.84 0.35L131.84 0.35Q131.29 0.35 130.16 0.08 129.04-0.2 128.24-0.4L128.24-0.4Q128.09-0.45 127.84-0.5L127.84-0.5Q127.19-0.7 126.49-0.83 125.79-0.95 125.09-0.7L125.09-0.7Q124.89-0.7 124.66-1.13 124.44-1.55 124.44-1.75L124.44-1.75Q124.79-2.5 124.91-3.55 125.04-4.6 125.04-5.35L125.04-5.35 125.04-27.25Q125.04-27.75 125.01-28.55 124.99-29.35 124.79-29.8L124.79-29.8Q124.59-30.35 123.69-30.5 122.79-30.65 121.79-30.65L121.79-30.65Q121.74-30.65 121.71-31.28 121.69-31.9 121.84-31.95L121.84-31.95Q123.69-32.15 125.46-32.68 127.24-33.2 128.79-33.9L128.79-33.9Q128.99-33.9 129.16-33.63 129.34-33.35 129.34-33.1L129.34-33.1Q129.34-33.1 129.06-32 128.79-30.9 128.79-28.85L128.79-28.85 128.79-19.25Q128.79-19.05 128.84-18.8 128.89-18.55 129.09-18.75L129.09-18.75Q129.49-19.05 130.54-19.68 131.59-20.3 132.84-20.85 134.09-21.4 134.99-21.4L134.99-21.4Q137.19-21.4 138.86-20.48 140.54-19.55 141.66-18.07 142.79-16.6 143.36-14.83 143.94-13.05 143.94-11.4L143.94-11.4Q143.94-8.2 142.36-5.53 140.79-2.85 138.06-1.25 135.34 0.35 131.84 0.35ZM132.64-18.5L132.64-18.5Q131.69-18.5 130.54-18.03 129.39-17.55 129.04-17.2L129.04-17.2Q128.79-16.95 128.79-16.65L128.79-16.65 128.79-4.8Q128.79-3.75 129.49-2.95 130.19-2.15 131.24-1.73 132.29-1.3 133.34-1.3L133.34-1.3Q135.09-1.3 136.56-2.53 138.04-3.75 138.94-5.63 139.84-7.5 139.84-9.45L139.84-9.45Q139.84-13.7 137.86-16.1 135.89-18.5 132.64-18.5ZM155.34-21.35L155.34-21.35Q156.79-21.35 157.76-21.13 158.74-20.9 160.34-20.7L160.34-20.7Q160.59-19.6 160.74-18.13 160.89-16.65 160.94-15.35L160.94-15.35Q160.94-15.1 160.44-15.1L160.44-15.1Q160.24-15.1 160.01-15.15 159.79-15.2 159.59-15.35L159.59-15.35Q159.34-16.25 158.76-17.3 158.19-18.35 157.36-19.07 156.54-19.8 155.49-19.8L155.49-19.8Q153.74-19.8 152.89-18.93 152.04-18.05 152.04-16.75L152.04-16.75Q152.04-15.5 152.64-14.73 153.24-13.95 154.21-13.38 155.19-12.8 156.29-12.15L156.29-12.15Q157.39-11.5 158.69-10.7 159.99-9.9 160.94-8.83 161.89-7.75 161.89-6.2L161.89-6.2Q161.89-4.25 160.84-2.73 159.79-1.2 158.09-0.33 156.39 0.55 154.39 0.55L154.39 0.55Q152.69 0.55 151.49 0.23 150.29-0.1 148.69-0.4L148.69-0.4Q148.49-0.95 148.29-1.9 148.09-2.85 147.96-3.85 147.84-4.85 147.84-5.45L147.84-5.45Q148.24-5.75 148.74-5.75L148.74-5.75Q148.99-5.75 149.14-5.65L149.14-5.65Q149.44-4.65 150.19-3.58 150.94-2.5 152.04-1.78 153.14-1.05 154.44-1.05L154.44-1.05Q155.94-1.05 156.94-1.95 157.94-2.85 157.94-4.55L157.94-4.55Q157.94-6.05 157.04-6.98 156.14-7.9 154.79-8.63 153.44-9.35 151.99-10.15L151.99-10.15Q150.54-11 149.41-12.23 148.29-13.45 148.29-15.4L148.29-15.4Q148.29-17.2 149.31-18.55 150.34-19.9 151.94-20.63 153.54-21.35 155.34-21.35ZM176.58-32.5L176.58-32.5Q178.13-32.5 179.16-32.33 180.18-32.15 181.26-31.85 182.33-31.55 183.93-31.15L183.93-31.15Q184.23-29.25 184.41-27.23 184.58-25.2 184.63-24.2L184.63-24.2Q184.68-23.95 184.28-23.83 183.88-23.7 183.63-23.7L183.63-23.7Q183.28-23.7 183.08-23.9L183.08-23.9Q182.98-24.8 182.48-26 181.98-27.2 181.11-28.3 180.23-29.4 179.01-30.13 177.78-30.85 176.23-30.85L176.23-30.85Q174.23-30.85 173.08-30 171.93-29.15 171.43-27.9 170.93-26.65 170.93-25.45L170.93-25.45Q170.93-23.5 171.96-22.2 172.98-20.9 174.56-19.9 176.13-18.9 177.73-17.85L177.73-17.85Q178.93-17.1 180.38-16.2 181.83-15.3 183.18-14.2 184.53-13.1 185.38-11.68 186.23-10.25 186.23-8.45L186.23-8.45Q186.23-5.8 184.76-3.78 183.28-1.75 180.96-0.63 178.63 0.5 176.03 0.5L176.03 0.5Q173.58 0.5 171.31-0.05 169.03-0.6 167.23-0.95L167.23-0.95Q166.93-2.4 166.71-4.05 166.48-5.7 166.36-6.95 166.23-8.2 166.23-8.5L166.23-8.5Q166.48-8.75 166.81-8.93 167.13-9.1 167.48-9.1L167.48-9.1Q167.93-9.1 168.03-8.65L168.03-8.65Q168.18-7.95 168.66-6.73 169.13-5.5 170.06-4.2 170.98-2.9 172.46-2.02 173.93-1.15 176.13-1.15L176.13-1.15Q178.48-1.15 180.23-2.73 181.98-4.3 181.98-7.15L181.98-7.15Q181.98-9.2 181.06-10.35 180.13-11.5 178.66-12.35 177.18-13.2 175.48-14.15L175.48-14.15Q173.63-15.25 171.66-16.57 169.68-17.9 168.33-19.7 166.98-21.5 166.98-23.95L166.98-23.95Q166.98-26.55 168.36-28.48 169.73-30.4 171.93-31.45 174.13-32.5 176.58-32.5ZM200.08-21.3L200.08-21.3Q201.48-21.3 202.71-20.4 203.93-19.5 204.68-18 205.43-16.5 205.43-14.6L205.43-14.6 205.43-4.55Q205.43-3.6 205.78-2.93 206.13-2.25 206.93-2.25L206.93-2.25Q207.63-2.25 208.03-2.55 208.43-2.85 208.53-2.9L208.53-2.9Q208.63-2.9 208.68-2.75 208.73-2.6 208.73-2.5L208.73-2.5Q208.73-1.95 208.48-1.55L208.48-1.55Q208.18-1.3 207.51-0.85 206.83-0.4 206.11-0.05 205.38 0.3 204.83 0.3L204.83 0.3Q203.78 0.3 202.96-0.75 202.13-1.8 201.88-2.9L201.88-2.9Q201.68-2.7 200.96-2.15 200.23-1.6 199.28-1.03 198.33-0.45 197.41-0.03 196.48 0.4 195.83 0.4L195.83 0.4Q193.43 0.4 191.78-1.23 190.13-2.85 190.13-5.2L190.13-5.2Q190.13-6.7 190.96-7.78 191.78-8.85 192.58-9.15L192.58-9.15Q193.98-9.65 195.71-10.23 197.43-10.8 198.93-11.35 200.43-11.9 201.13-12.2L201.13-12.2Q201.53-12.35 201.63-12.58 201.73-12.8 201.73-13.45L201.73-13.45 201.73-14.75Q201.73-15.85 201.18-16.93 200.63-18 199.68-18.73 198.73-19.45 197.53-19.45L197.53-19.45Q196.28-19.45 195.68-18.65 195.08-17.85 194.83-16.4L194.83-16.4Q194.38-14.05 192.53-14.05L192.53-14.05Q191.73-14.05 191.31-14.7 190.88-15.35 190.88-16.1L190.88-16.1Q190.88-16.25 190.98-16.68 191.08-17.1 191.23-17.3L191.23-17.3Q191.98-18 193.38-18.95 194.78-19.9 196.56-20.6 198.33-21.3 200.08-21.3ZM197.48-2.25L197.48-2.25Q198.33-2.25 199.33-2.65 200.33-3.05 201.03-3.53 201.73-4 201.73-4.25L201.73-4.25 201.73-10.9Q200.78-10.6 199.33-10.15 197.88-9.7 197.18-9.45L197.18-9.45Q195.88-8.95 195.03-8 194.18-7.05 194.18-5.65L194.18-5.65Q194.18-4.3 195.13-3.28 196.08-2.25 197.48-2.25ZM222.48-34.05L222.48-34.05Q223.58-34.05 223.9-33.95 224.23-33.85 224.78-33.45L224.78-33.45Q224.93-33.3 225.1-32.9 225.28-32.5 225.28-32.1L225.28-32.1Q225.28-30.8 224.55-30.48 223.83-30.15 223.33-30.15L223.33-30.15Q222.98-30.15 222.63-30.3 222.28-30.45 221.88-30.65L221.88-30.65Q221.48-30.9 221.23-31 220.98-31.1 220.48-31.1L220.48-31.1Q219.38-31.1 218.55-29.95 217.73-28.8 217.78-26.5L217.78-26.5 217.78-20.45 223.58-20.45Q223.78-20.45 223.78-20.05L223.78-20.05Q223.78-19.95 223.78-19.9L223.78-19.9Q223.78-19.1 223.13-18.45L223.13-18.45 217.78-18.45 217.78-5.65Q217.78-4.55 217.8-3.6 217.83-2.65 218.03-2.05L218.03-2.05Q218.13-1.8 218.8-1.6 219.48-1.4 220.25-1.33 221.03-1.25 221.33-1.25L221.33-1.25Q221.48-1.05 221.5-0.55 221.53-0.05 221.33 0.15L221.33 0.15Q219.83 0.05 218.58-0.03 217.33-0.1 215.88-0.1L215.88-0.1Q214.48-0.1 213.35-0.03 212.23 0.05 210.73 0.15L210.73 0.15Q210.53-0.05 210.55-0.55 210.58-1.05 210.73-1.25L210.73-1.25Q211.03-1.25 211.73-1.33 212.43-1.4 213.08-1.6 213.73-1.8 213.78-2.05L213.78-2.05Q213.98-2.65 214-3.6 214.03-4.55 214.03-5.65L214.03-5.65 214.03-18.45 211.18-18.45Q211.08-18.45 211.03-18.63 210.98-18.8 210.98-18.9L210.98-18.9Q210.98-19 211.28-19.38 211.58-19.75 211.9-20.1 212.23-20.45 212.23-20.45L212.23-20.45 214.03-20.45 214.03-21.4Q214.03-24.05 214.9-26.35 215.78-28.65 217.13-30.38 218.48-32.1 219.93-33.08 221.38-34.05 222.48-34.05ZM236.08-21.3L236.08-21.3Q237.48-21.3 238.7-20.4 239.93-19.5 240.68-18 241.43-16.5 241.43-14.6L241.43-14.6 241.43-4.55Q241.43-3.6 241.78-2.93 242.13-2.25 242.93-2.25L242.93-2.25Q243.63-2.25 244.03-2.55 244.43-2.85 244.53-2.9L244.53-2.9Q244.63-2.9 244.68-2.75 244.73-2.6 244.73-2.5L244.73-2.5Q244.73-1.95 244.48-1.55L244.48-1.55Q244.18-1.3 243.5-0.85 242.83-0.4 242.1-0.05 241.38 0.3 240.83 0.3L240.83 0.3Q239.78 0.3 238.95-0.75 238.13-1.8 237.88-2.9L237.88-2.9Q237.68-2.7 236.95-2.15 236.23-1.6 235.28-1.03 234.33-0.45 233.4-0.03 232.48 0.4 231.83 0.4L231.83 0.4Q229.43 0.4 227.78-1.23 226.13-2.85 226.13-5.2L226.13-5.2Q226.13-6.7 226.95-7.78 227.78-8.85 228.58-9.15L228.58-9.15Q229.98-9.65 231.7-10.23 233.43-10.8 234.93-11.35 236.43-11.9 237.13-12.2L237.13-12.2Q237.53-12.35 237.63-12.58 237.73-12.8 237.73-13.45L237.73-13.45 237.73-14.75Q237.73-15.85 237.18-16.93 236.63-18 235.68-18.73 234.73-19.45 233.53-19.45L233.53-19.45Q232.28-19.45 231.68-18.65 231.08-17.85 230.83-16.4L230.83-16.4Q230.38-14.05 228.53-14.05L228.53-14.05Q227.73-14.05 227.3-14.7 226.88-15.35 226.88-16.1L226.88-16.1Q226.88-16.25 226.98-16.68 227.08-17.1 227.23-17.3L227.23-17.3Q227.98-18 229.38-18.95 230.78-19.9 232.55-20.6 234.33-21.3 236.08-21.3ZM233.48-2.25L233.48-2.25Q234.33-2.25 235.33-2.65 236.33-3.05 237.03-3.53 237.73-4 237.73-4.25L237.73-4.25 237.73-10.9Q236.78-10.6 235.33-10.15 233.88-9.7 233.18-9.45L233.18-9.45Q231.88-8.95 231.03-8 230.18-7.05 230.18-5.65L230.18-5.65Q230.18-4.3 231.13-3.28 232.08-2.25 233.48-2.25ZM260.12-21.35L260.12-21.35Q261.07-21.35 261.92-20.93 262.77-20.5 263.12-19.9L263.12-19.9Q263.22-19.7 263.27-19.35 263.32-19 263.32-18.6L263.32-18.6Q263.32-17.25 262.7-16.65 262.07-16.05 261.67-16.05L261.67-16.05Q261.17-16.05 260.72-16.4 260.27-16.75 259.87-17L259.87-17Q259.52-17.25 259.15-17.43 258.77-17.6 258.07-17.6L258.07-17.6Q257.02-17.6 256.15-16.73 255.27-15.85 254.72-14.8 254.17-13.75 254.17-13.2L254.17-13.2 254.17-5.65Q254.17-4.55 254.2-3.6 254.22-2.65 254.42-2.05L254.42-2.05Q254.52-1.8 255.42-1.6 256.32-1.4 257.32-1.33 258.32-1.25 258.62-1.25L258.62-1.25Q258.77-1.05 258.8-0.55 258.82-0.05 258.62 0.15L258.62 0.15Q257.12 0.05 255.57-0.03 254.02-0.1 252.57-0.1L252.57-0.1Q251.17-0.1 249.87-0.03 248.57 0.05 247.07 0.15L247.07 0.15Q246.87-0.05 246.9-0.55 246.92-1.05 247.07-1.25L247.07-1.25Q247.37-1.25 248.1-1.33 248.82-1.4 249.47-1.6 250.12-1.8 250.17-2.05L250.17-2.05Q250.37-2.65 250.4-3.6 250.42-4.55 250.42-5.65L250.42-5.65 250.42-14.75Q250.42-15.25 250.4-16.05 250.37-16.85 250.17-17.3L250.17-17.3Q250.02-17.75 249.32-17.93 248.62-18.1 247.92-18.13 247.22-18.15 247.02-18.15L247.02-18.15Q246.97-18.25 246.92-18.75 246.87-19.25 247.02-19.45L247.02-19.45Q248.92-19.7 250.72-20.2 252.52-20.7 253.97-21.5L253.97-21.5Q254.17-21.5 254.35-21.2 254.52-20.9 254.52-20.7L254.52-20.7Q254.52-20.55 254.42-19.55 254.32-18.55 254.25-17.53 254.17-16.5 254.17-16.2L254.17-16.2Q254.17-16.05 254.25-16.05 254.32-16.05 254.37-16.1L254.37-16.1Q254.87-17.15 255.8-18.38 256.72-19.6 257.87-20.48 259.02-21.35 260.12-21.35ZM268.17-28.95L268.17-28.95Q268.17-29.95 268.9-30.68 269.62-31.4 270.62-31.4L270.62-31.4Q271.62-31.4 272.35-30.68 273.07-29.95 273.07-28.95L273.07-28.95Q273.07-27.95 272.35-27.23 271.62-26.5 270.62-26.5L270.62-26.5Q269.62-26.5 268.9-27.23 268.17-27.95 268.17-28.95ZM272.87-17.5L272.87-5.65Q272.87-4.55 272.9-3.6 272.92-2.65 273.12-2.05L273.12-2.05Q273.22-1.8 273.85-1.6 274.47-1.4 275.17-1.33 275.87-1.25 276.17-1.25L276.17-1.25Q276.32-1.05 276.35-0.55 276.37-0.05 276.17 0.15L276.17 0.15Q274.67 0.05 273.55-0.03 272.42-0.1 270.97-0.1L270.97-0.1Q269.57-0.1 268.42-0.03 267.27 0.05 265.77 0.15L265.77 0.15Q265.57-0.05 265.6-0.55 265.62-1.05 265.77-1.25L265.77-1.25Q266.07-1.25 266.8-1.33 267.52-1.4 268.17-1.6 268.82-1.8 268.87-2.05L268.87-2.05Q269.07-2.65 269.1-3.6 269.12-4.55 269.12-5.65L269.12-5.65 269.12-14.75Q269.12-15.25 269.1-16.05 269.07-16.85 268.87-17.3L268.87-17.3Q268.72-17.75 268.02-17.93 267.32-18.1 266.62-18.13 265.92-18.15 265.72-18.15L265.72-18.15Q265.67-18.25 265.62-18.75 265.57-19.25 265.72-19.45L265.72-19.45Q267.62-19.7 269.42-20.2 271.22-20.7 272.67-21.5L272.67-21.5Q272.87-21.5 273.05-21.2 273.22-20.9 273.22-20.7L273.22-20.7Q273.22-20.55 273.12-19.85 273.02-19.15 272.95-18.45 272.87-17.75 272.87-17.5L272.87-17.5Z" opacity="1" transform="matrix(1,0,0,1,0,0)" fill="#03424c" class="wordmark-text-0" data-fill-palette-color="primary" id="text-0"></path></svg></g></svg></g><g transform="matrix(1,0,0,1,0,36.25101824259504)"><svg viewBox="0 0 192 14.22544546813158" height="14.22544546813158" width="192"><g transform="matrix(1,0,0,1,0,0)"><svg width="192" viewBox="2.108888911147 -36.74 506.752928854386 37.550000000000004" height="14.22544546813158" data-palette-color="#03424c"><path d="M8.33-36.21L10.52-36.21Q11.89-36.11 10.94-34.25L10.94-34.25Q8.84-30.4 7.12-21.42 5.4-12.45 6.59-6.35L6.59-6.35Q10.38-10.5 13.71-17.82 17.04-25.15 18.19-30.81L18.19-30.81 18.29-30.91Q18.73-33.11 19.24-34.91L19.24-34.91Q19.68-36.21 20.97-36.21L20.97-36.21 22.78-36.21Q23.97-36.21 23.44-34.69L23.44-34.69Q21.44-28.81 20.68-20.61 19.92-12.4 21.48-5.81L21.48-5.81Q26.03-10.96 29.1-19.63 32.18-28.3 32.5-35.01L32.5-35.01Q32.54-35.69 32.69-35.95 32.84-36.21 33.47-36.21L33.47-36.21 35.47-36.21Q36.28-36.21 36.51-35.95 36.74-35.69 36.69-34.96L36.69-34.96Q36.43-29.64 34.48-22.97 32.54-16.31 28.74-9.75 24.93-3.2 20.29 0L20.29 0 19.68 0Q18.77 0 18.43-1L18.43-1Q16.53-6.49 16.72-16.26L16.72-16.26Q14.94-11.94 11.84-7.47 8.74-3 6.03 0L6.03 0 4.79 0Q3.88 0 3.54-1L3.54-1Q1.39-7.74 2.47-17.99 3.54-28.25 6.98-35.5L6.98-35.5Q7.32-36.21 8.33-36.21L8.33-36.21ZM34.45-1.54L42.99-35.11Q43.28-36.21 44.48-36.21L44.48-36.21 45.94-36.21Q46.53-36.21 46.81-35.75 47.09-35.3 46.95-34.64L46.95-34.64 43.48-21.19 55.39-21.19 58.93-35.11Q59.23-36.21 60.45-36.21L60.45-36.21 61.89-36.21Q62.5-36.21 62.77-35.75 63.03-35.3 62.89-34.64L62.89-34.64 54.34-1.1Q54.03 0 52.83 0L52.83 0 51.39 0Q50.78 0 50.51-0.45 50.24-0.9 50.39-1.54L50.39-1.54 54.54-17.75 42.62-17.75 38.38-1.1Q38.08 0 36.89 0L36.89 0 35.45 0Q34.84 0 34.56-0.45 34.27-0.9 34.45-1.54L34.45-1.54ZM74.12 0L74.12 0 62.13 0Q61.52 0 61.24-0.45 60.96-0.9 61.13-1.54L61.13-1.54 69.06-32.74 67.06-32.74Q66.33-32.74 66.14-32.97 65.96-33.2 66.16-34.06L66.16-34.06 66.47-35.21Q66.67-35.84 66.89-36.02 67.11-36.21 67.82-36.21L67.82-36.21 84.13-36.21Q84.81-36.21 85.04-35.95 85.27-35.69 85.08-34.96L85.08-34.96 84.71-33.69Q84.47-32.74 83.47-32.74L83.47-32.74 73.12-32.74 70.21-21.34 79.07-21.34Q79.51-21.34 79.69-21 79.88-20.65 79.78-20.19L79.78-20.19 79.41-18.95Q79.17-17.9 77.92-17.9L77.92-17.9 69.38-17.9 65.67-3.44 75.26-3.44Q75.73-3.44 75.9-3.1 76.07-2.76 75.97-2.29L75.97-2.29 75.63-1.05Q75.36 0 74.12 0ZM81.02-1.54L88.96-32.74Q87.71-32.74 87.21-32.74 86.71-32.74 86.41-33.17 86.1-33.59 86.27-34.16L86.27-34.16 86.52-35.21Q86.61-35.6 86.99-35.9 87.37-36.21 87.66-36.21L87.66-36.21 96.16-36.21Q99.6-36.21 101.68-34.47 103.75-32.74 103.75-29.39 103.75-26.05 102.51-23.1L102.51-23.1Q100.36-18.04 95.57-16.5L95.57-16.5 97.87-1.71Q98.11 0 96.77 0L96.77 0 95.06 0Q94.4 0 94.11-0.4 93.82-0.81 93.72-1.76L93.72-1.76 91.81-15.89 88.71-15.84 84.95-1.1Q84.66 0 83.46 0L83.46 0 82.02 0Q81.41 0 81.13-0.45 80.85-0.9 81.02-1.54L81.02-1.54ZM93.01-32.69L93.01-32.69 89.62-19.24 92.72-19.41Q96.11-19.56 97.88-22.28 99.65-25 99.65-29.59L99.65-29.59Q99.65-30.91 98.81-31.73 97.97-32.54 96.68-32.62 95.4-32.69 93.01-32.69ZM116.05 0L116.05 0 104.07 0Q103.46 0 103.18-0.45 102.9-0.9 103.07-1.54L103.07-1.54 111-32.74 109-32.74Q108.27-32.74 108.08-32.97 107.9-33.2 108.1-34.06L108.1-34.06 108.41-35.21Q108.61-35.84 108.83-36.02 109.05-36.21 109.76-36.21L109.76-36.21 126.06-36.21Q126.75-36.21 126.98-35.95 127.21-35.69 127.02-34.96L127.02-34.96 126.65-33.69Q126.41-32.74 125.41-32.74L125.41-32.74 115.05-32.74 112.15-21.34 121.01-21.34Q121.45-21.34 121.63-21 121.82-20.65 121.72-20.19L121.72-20.19 121.35-18.95Q121.11-17.9 119.86-17.9L119.86-17.9 111.32-17.9 107.61-3.44 117.2-3.44Q117.67-3.44 117.84-3.1 118.01-2.76 117.91-2.29L117.91-2.29 117.57-1.05Q117.3 0 116.05 0ZM154.36-27.44L154.36-27.44Q154.4-27.1 154.4-26.81L154.4-26.81Q154.4-26.1 153.35-25.81L153.35-25.81 151.96-25.39Q151.4-25.29 150.9-25.7 150.4-26.1 150.35-26.76L150.35-26.76Q149.96-30.59 148.67-32.2L148.67-32.2Q148.01-32.45 147.2-32.45L147.2-32.45Q144.76-32.54 142.28-28.99 139.8-25.44 137.99-18.9 136.17-12.35 136.79-8.03 137.41-3.71 139.32-3.25L139.32-3.25Q143.05-3.59 145.52-9.01L145.52-9.01Q145.96-10.01 146.31-10.21 146.66-10.4 147.52-10.06L147.52-10.06 149.11-9.4Q150.01-9.01 149.25-7.4L149.25-7.4Q146.96-3.15 144.71-1.38 142.47 0.39 139.17 0.39L139.17 0.39Q137.41 0.49 135.31-1.16 133.21-2.81 132.74-8.08 132.26-13.35 133.96-20.25 135.65-27.15 139.61-31.85 143.56-36.55 148.01-36.6L148.01-36.6Q148.62-36.6 149.67-36.24 150.72-35.89 151.58-35.24 152.45-34.59 153.31-32.42 154.16-30.25 154.36-27.44ZM169.86-31.81L161.31-14.45 168.66-14.45 169.86-31.81ZM168.46-10.84L159.58-10.84 154.72-1Q154.16 0.15 152.86 0L152.86 0 151.72-0.1Q150.86-0.15 150.59-0.74 150.32-1.34 150.67-2L150.67-2 167.32-34.11Q168.37-36.11 170.08-36.11L170.08-36.11 172.08-36.16Q174.05-36.16 173.91-33.74L173.91-33.74 172.17-1.1Q172.08-0.05 170.66 0L170.66 0 168.98-0.05Q167.71-0.05 167.8-1.39L167.8-1.39 168.46-10.84ZM175.83-1.54L183.77-32.74Q182.52-32.74 182.02-32.74 181.52-32.74 181.22-33.17 180.91-33.59 181.08-34.16L181.08-34.16 181.33-35.21Q181.43-35.6 181.8-35.9 182.18-36.21 182.48-36.21L182.48-36.21 190.97-36.21Q194.41-36.21 196.49-34.47 198.56-32.74 198.56-29.39 198.56-26.05 197.32-23.1L197.32-23.1Q195.17-18.04 190.39-16.5L190.39-16.5 192.68-1.71Q192.92 0 191.58 0L191.58 0 189.87 0Q189.21 0 188.92-0.4 188.63-0.81 188.53-1.76L188.53-1.76 186.63-15.89 183.52-15.84 179.77-1.1Q179.47 0 178.28 0L178.28 0 176.84 0Q176.23 0 175.94-0.45 175.66-0.9 175.83-1.54L175.83-1.54ZM187.82-32.69L187.82-32.69 184.43-19.24 187.53-19.41Q190.92-19.56 192.69-22.28 194.46-25 194.46-29.59L194.46-29.59Q194.46-30.91 193.62-31.73 192.78-32.54 191.5-32.62 190.21-32.69 187.82-32.69ZM210.87 0L210.87 0 198.88 0Q198.27 0 197.99-0.45 197.71-0.9 197.88-1.54L197.88-1.54 205.81-32.74 203.81-32.74Q203.08-32.74 202.89-32.97 202.71-33.2 202.91-34.06L202.91-34.06 203.22-35.21Q203.42-35.84 203.64-36.02 203.86-36.21 204.57-36.21L204.57-36.21 220.88-36.21Q221.56-36.21 221.79-35.95 222.02-35.69 221.83-34.96L221.83-34.96 221.46-33.69Q221.22-32.74 220.22-32.74L220.22-32.74 209.87-32.74 206.96-21.34 215.82-21.34Q216.26-21.34 216.44-21 216.63-20.65 216.53-20.19L216.53-20.19 216.16-18.95Q215.92-17.9 214.67-17.9L214.67-17.9 206.13-17.9 202.42-3.44 212.01-3.44Q212.48-3.44 212.65-3.1 212.82-2.76 212.72-2.29L212.72-2.29 212.38-1.05Q212.11 0 210.87 0ZM230.81 0L230.81 0 218.82 0Q218.21 0 217.93-0.45 217.65-0.9 217.82-1.54L217.82-1.54 225.76-32.74 223.75-32.74Q223.02-32.74 222.84-32.97 222.66-33.2 222.85-34.06L222.85-34.06 223.17-35.21Q223.36-35.84 223.58-36.02 223.8-36.21 224.51-36.21L224.51-36.21 240.82-36.21Q241.5-36.21 241.74-35.95 241.97-35.69 241.77-34.96L241.77-34.96 241.41-33.69Q241.16-32.74 240.16-32.74L240.16-32.74 229.81-32.74 226.9-21.34 235.77-21.34Q236.21-21.34 236.39-21 236.57-20.65 236.47-20.19L236.47-20.19 236.11-18.95Q235.86-17.9 234.62-17.9L234.62-17.9 226.07-17.9 222.36-3.44 231.96-3.44Q232.42-3.44 232.59-3.1 232.76-2.76 232.67-2.29L232.67-2.29 232.32-1.05Q232.06 0 230.81 0ZM237.72-1.54L245.65-32.74Q244.41-32.74 243.91-32.74 243.41-32.74 243.1-33.17 242.79-33.59 242.97-34.16L242.97-34.16 243.21-35.21Q243.31-35.6 243.69-35.9 244.06-36.21 244.36-36.21L244.36-36.21 252.85-36.21Q256.3-36.21 258.37-34.47 260.45-32.74 260.45-29.39 260.45-26.05 259.2-23.1L259.2-23.1Q257.05-18.04 252.27-16.5L252.27-16.5 254.56-1.71Q254.81 0 253.46 0L253.46 0 251.75 0Q251.1 0 250.8-0.4 250.51-0.81 250.41-1.76L250.41-1.76 248.51-15.89 245.41-15.84 241.65-1.1Q241.35 0 240.16 0L240.16 0 238.72 0Q238.11 0 237.83-0.45 237.55-0.9 237.72-1.54L237.72-1.54ZM249.7-32.69L249.7-32.69 246.31-19.24 249.41-19.41Q252.8-19.56 254.57-22.28 256.34-25 256.34-29.59L256.34-29.59Q256.34-30.91 255.5-31.73 254.66-32.54 253.38-32.62 252.1-32.69 249.7-32.69ZM282.95-26.44L282.95-26.44Q282.95-25.2 282.1-24.95L282.1-24.95 280.34-24.39Q279.95-24.24 279.55-24.52 279.14-24.8 279.14-25.44L279.14-25.44Q279.14-32.06 277-33.06L277-33.06Q276-33.54 274.8-33.01L274.8-33.01Q273.24-32.2 271.8-29.65 270.36-27.1 270.26-23.85L270.26-23.85Q270.21-22.56 270.7-21.83 271.19-21.09 272.6-20.65L272.6-20.65 274.65-19.95Q277.56-18.95 278.47-17.63 279.39-16.31 279.34-13.75L279.34-13.75Q279.29-8.35 275.82-3.8 272.36 0.76 267.89 0.81L267.89 0.81Q262.01 0.81 262.01-8.79L262.01-8.79Q261.91-10.79 262.74-11.06L262.74-11.06 264.59-11.65Q265.11-11.84 265.42-11.57 265.74-11.3 265.74-10.69L265.74-10.69Q265.69-3.2 267.74-2.25L267.74-2.25Q268.5-2.1 269.7-2.59L269.7-2.59Q271.75-3.49 273.32-6.3 274.9-9.11 275.18-11.78 275.46-14.45 274.85-15.31 274.24-16.16 271.7-16.94L271.7-16.94 269.6-17.6Q268.21-18.04 267.18-19.2 266.16-20.36 266.16-22.09L266.16-22.09Q266.16-25.2 267.47-28.53 268.79-31.86 271.39-34.3 273.99-36.74 277.12-36.74 280.24-36.74 281.6-34.09 282.95-31.45 282.95-26.44ZM315.88-32.59L315.88-32.59 308.24-32.59 300.18-1.1Q299.89 0 298.67 0L298.67 0 297.23 0Q296.62 0 296.35-0.45 296.08-0.9 296.23-1.54L296.23-1.54 304.14-32.59 296.23-32.59Q294.79-32.59 295.13-33.74L295.13-33.74 295.47-35.21Q295.64-35.84 295.94-36.02 296.23-36.21 296.99-36.21L296.99-36.21 316.49-36.21Q318.03-36.21 317.69-34.79L317.69-34.79 317.42-33.64Q317.23-32.59 315.88-32.59ZM327.65-31.81L319.1-14.45 326.45-14.45 327.65-31.81ZM326.26-10.84L317.37-10.84 312.51-1Q311.95 0.15 310.66 0L310.66 0 309.51-0.1Q308.65-0.15 308.39-0.74 308.12-1.34 308.46-2L308.46-2 325.11-34.11Q326.16-36.11 327.87-36.11L327.87-36.11 329.87-36.16Q331.85-36.16 331.7-33.74L331.7-33.74 329.97-1.1Q329.87-0.05 328.45 0L328.45 0 326.77-0.05Q325.5-0.05 325.6-1.39L325.6-1.39 326.26-10.84ZM333.75-1.54L342.32-35.11Q342.61-36.21 343.81-36.21L343.81-36.21 345.27-36.21Q345.86-36.21 346.14-35.75 346.42-35.3 346.25-34.64L346.25-34.64 342.71-20.8 354.72-35.4Q355.36-36.21 356.36-36.21L356.36-36.21 358.46-36.21Q359.12-36.21 359.31-35.75 359.51-35.3 359.12-34.79L359.12-34.79 345.47-18.6 350.57-1.49Q351.01 0 349.72 0L349.72 0 347.86 0Q347.15 0 346.91-0.24 346.66-0.49 346.47-1.25L346.47-1.25 341.76-17.04 337.7-1.1Q337.41 0 336.21 0L336.21 0 334.75 0Q334.16 0 333.88-0.45 333.6-0.9 333.75-1.54L333.75-1.54ZM368.19 0L368.19 0 356.21 0Q355.6 0 355.32-0.45 355.04-0.9 355.21-1.54L355.21-1.54 363.14-32.74 361.14-32.74Q360.41-32.74 360.22-32.97 360.04-33.2 360.24-34.06L360.24-34.06 360.55-35.21Q360.75-35.84 360.97-36.02 361.19-36.21 361.9-36.21L361.9-36.21 378.2-36.21Q378.89-36.21 379.12-35.95 379.35-35.69 379.16-34.96L379.16-34.96 378.79-33.69Q378.55-32.74 377.55-32.74L377.55-32.74 367.19-32.74 364.29-21.34 373.15-21.34Q373.59-21.34 373.77-21 373.96-20.65 373.86-20.19L373.86-20.19 373.49-18.95Q373.25-17.9 372-17.9L372-17.9 363.46-17.9 359.75-3.44 369.34-3.44Q369.81-3.44 369.98-3.1 370.15-2.76 370.05-2.29L370.05-2.29 369.71-1.05Q369.44 0 368.19 0ZM406.52-32.74L406.52-32.74 396.12-32.74 392.58-18.7 401.66-18.7Q402.13-18.7 402.3-18.35 402.47-17.99 402.37-17.55L402.37-17.55 402.03-16.31Q401.78-15.26 400.51-15.26L400.51-15.26 391.68-15.26 388.06-1.1Q387.77 0 386.57 0L386.57 0 385.13 0Q384.52 0 384.24-0.45 383.96-0.9 384.13-1.54L384.13-1.54 392.07-32.74 390.11-32.74Q389.38-32.74 389.2-32.97 389.02-33.2 389.23-34.06L389.23-34.06 389.53-35.21Q389.72-35.84 389.94-36.02 390.16-36.21 390.87-36.21L390.87-36.21 407.18-36.21Q407.86-36.21 408.09-35.95 408.33-35.69 408.13-34.96L408.13-34.96 407.77-33.69Q407.52-32.74 406.52-32.74ZM418.36 0L418.36 0 404.69 0Q404.1 0 403.82-0.45 403.54-0.9 403.69-1.54L403.69-1.54 412.25-35.11Q412.55-36.21 413.74-36.21L413.74-36.21 415.21-36.21Q415.79-36.21 416.08-35.75 416.36-35.3 416.19-34.64L416.19-34.64 408.25-3.44 419.55-3.44Q419.99-3.44 420.2-3.1 420.41-2.76 420.29-2.29L420.29-2.29 419.95-1.05Q419.7 0 418.36 0ZM422.92-1.54L431.49-35.11Q431.78-36.21 432.98-36.21L432.98-36.21 434.44-36.21Q435.03-36.21 435.31-35.75 435.59-35.3 435.42-34.64L435.42-34.64 426.88-1.1Q426.58 0 425.39 0L425.39 0 423.92 0Q423.34 0 423.06-0.45 422.77-0.9 422.92-1.54L422.92-1.54ZM445.18-16.99L445.18-16.99 454.29-16.99Q455.07-16.99 454.73-15.89L454.73-15.89Q451.87-6.81 449.08-3.41 446.28 0 442.88 0.28 439.47 0.56 437.35-1.51 435.22-3.59 435.03-9.22 434.83-14.84 436.6-21.3 438.37-27.76 441.78-31.77 445.18-35.79 448.31-36.36 451.43-36.94 453.16-35.74 454.88-34.55 455.8-31.77 456.73-29 456.73-27.6 456.73-26.2 455.73-25.81L455.73-25.81 453.97-25.29Q453.49-25.2 453.16-25.48 452.83-25.76 452.75-27.31 452.68-28.86 451.98-30.48 451.29-32.1 450.14-32.4L450.14-32.4Q447.77-33.01 445-29.38 442.23-25.76 440.73-20.28 439.23-14.79 439.11-11.05 438.98-7.3 439.75-5.25 440.52-3.2 442.28-3.32 444.04-3.44 445.86-5.65 447.67-7.86 449.43-13.6L449.43-13.6 444.62-13.6Q443.67-13.6 444.04-14.99L444.04-14.99 444.43-16.41Q444.62-16.99 445.18-16.99ZM455.61-1.54L464.15-35.11Q464.44-36.21 465.64-36.21L465.64-36.21 467.11-36.21Q467.69-36.21 467.97-35.75 468.25-35.3 468.11-34.64L468.11-34.64 464.64-21.19 476.55-21.19 480.09-35.11Q480.39-36.21 481.61-36.21L481.61-36.21 483.05-36.21Q483.66-36.21 483.93-35.75 484.2-35.3 484.05-34.64L484.05-34.64 475.5-1.1Q475.19 0 473.99 0L473.99 0 472.55 0Q471.94 0 471.67-0.45 471.4-0.9 471.55-1.54L471.55-1.54 475.7-17.75 463.79-17.75 459.54-1.1Q459.24 0 458.05 0L458.05 0 456.61 0Q456 0 455.72-0.45 455.44-0.9 455.61-1.54L455.61-1.54ZM507-32.59L507-32.59 499.35-32.59 491.3-1.1Q491 0 489.78 0L489.78 0 488.34 0Q487.73 0 487.46-0.45 487.2-0.9 487.34-1.54L487.34-1.54 495.25-32.59 487.34-32.59Q485.9-32.59 486.24-33.74L486.24-33.74 486.59-35.21Q486.76-35.84 487.05-36.02 487.34-36.21 488.1-36.21L488.1-36.21 507.61-36.21Q509.14-36.21 508.8-34.79L508.8-34.79 508.53-33.64Q508.34-32.59 507-32.59Z" opacity="1" transform="matrix(1,0,0,1,0,0)" fill="#03424c" class="slogan-text-1" data-fill-palette-color="secondary" id="text-1"></path></svg></g></svg></g></svg></g></svg></g><g transform="matrix(1,0,0,1,72.02052495842293,0)"><svg viewBox="0 0 47.958950083154136 69.7584728482242" height="69.7584728482242" width="47.958950083154136"><g><svg xmlns="http://www.w3.org/2000/svg" xml:space="preserve" viewBox="2 0 11 16" x="0" y="0" height="69.7584728482242" width="47.958950083154136" class="icon-icon-0" data-fill-palette-color="accent" id="icon-0"><path d="M3 10h1v4H3zM5 10h1v4H5zM7 10h1v4H7zM9 10h1v4H9zM11 10h1v4h-1zM2.5 9h10a0.5 0.5 0 0 0 0-1h-10a0.5 0.5 0 0 0 0 1M8 3.543V2h3l-1-1 1-1H7v3.543A4.49 4.49 0 0 0 3.12 7h8.76A4.49 4.49 0 0 0 8 3.543M2 15h11v1H2z" fill="#f56607" data-fill-palette-color="accent"></path></svg></g></svg></g><g></g></svg></g></svg></g></svg></g></svg></g><defs></defs></svg><rect width="320" height="360" fill="none" stroke="none" visibility="hidden"></rect></g></svg></g></svg>