<svg xmlns="http://www.w3.org/2000/svg" version="1.1" xmlns:xlink="http://www.w3.org/1999/xlink" xmlns:svgjs="http://svgjs.dev/svgjs" width="2000" height="1500" viewBox="0 0 2000 1500"><rect width="2000" height="1500" fill="#ff69b4"></rect><g transform="matrix(0.75,0,0,0.75,249.090909090909,278.98548387096776)"><svg viewBox="0 0 396 248" data-background-color="#ff69b4" preserveAspectRatio="xMidYMid meet" height="1252" width="2000" xmlns="http://www.w3.org/2000/svg" xmlns:xlink="http://www.w3.org/1999/xlink"><g id="tight-bounds" transform="matrix(1,0,0,1,0.2400000000000091,0.4000000000000057)"><svg viewBox="0 0 395.52 247.2" height="247.2" width="395.52"><g><svg></svg></g><g><svg viewBox="0 0 395.52 247.2" height="247.2" width="395.52"><mask id="e301cf02-de97-43ba-a9ce-84431a6bd603"><rect width="640" height="400" fill="white"></rect><g transform="matrix(1,0,0,1,117.33071946850778,37.08)"><svg viewBox="0 0 160.85856106298442 173.04" height="173.04" width="160.85856106298442"><g><svg viewBox="0 0 160.85856106298442 173.04" height="173.04" width="160.85856106298442"><g><svg viewBox="0 0 160.85856106298442 173.04" height="173.04" width="160.85856106298442"><g><svg viewBox="0 0 160.85856106298442 173.04" height="173.04" width="160.85856106298442"><g id="SvgjsG2564"><svg viewBox="0 0 160.85856106298442 173.04" height="173.04" width="160.85856106298442" id="SvgjsSvg2563"><g><svg viewBox="0 0 160.85856106298442 173.04" height="173.04" width="160.85856106298442"><g transform="matrix(1,0,0,1,0,0)"><svg width="160.85856106298442" viewBox="-3.1166666666666667 -40.65 41.680098835294665 44.74074074074074" height="173.04" data-palette-color="#485c67"><path d="M5.65 0L5.65 0Q2.3-0.5 1.3-3.08 0.3-5.65 1.7-9.6L1.7-9.6 8.3-28.35Q9.2-30.95 10.38-32.8 11.55-34.65 13.33-35.65 15.1-36.65 17.75-36.65L17.75-36.65Q21.75-36.65 23.78-34.45 25.8-32.25 27.15-28.35L27.15-28.35 33.7-9.6Q35.1-5.65 34.23-3.08 33.35-0.5 29.95 0L29.95 0Q27.2 0.35 25.18-0.65 23.15-1.65 22.75-3.9L22.75-3.9Q22.45-5.4 22.68-6.4 22.9-7.4 23.1-8L23.1-8Q23.25-8.5 23.13-8.97 23-9.45 22.35-9.45L22.35-9.45 13.05-9.45Q12.4-9.45 12.28-8.97 12.15-8.5 12.35-8L12.35-8Q12.55-7.4 12.75-6.4 12.95-5.4 12.7-3.9L12.7-3.9Q12.3-1.65 10.35-0.65 8.4 0.35 5.65 0ZM14.1-16.45L21.4-16.45 18.8-24.6Q18.7-25.1 18.48-25.38 18.25-25.65 17.75-25.65L17.75-25.65Q17.25-25.65 17.03-25.38 16.8-25.1 16.65-24.6L16.65-24.6 14.1-16.45Z" opacity="1" transform="matrix(1,0,0,1,0,0)" fill="black" class="wordmark-text-0" id="SvgjsPath2562" stroke-width="7" stroke="black" stroke-linejoin="round"></path></svg></g></svg></g></svg></g></svg></g></svg></g></svg></g></svg></g></mask><g transform="matrix(1,0,0,1,117.33071946850778,37.08)"><svg viewBox="0 0 160.85856106298442 173.04" height="173.04" width="160.85856106298442"><g><svg viewBox="0 0 160.85856106298442 173.04" height="173.04" width="160.85856106298442"><g><svg viewBox="0 0 160.85856106298442 173.04" height="173.04" width="160.85856106298442"><g><svg viewBox="0 0 160.85856106298442 173.04" height="173.04" width="160.85856106298442"><g id="textblocktransform"><svg viewBox="0 0 160.85856106298442 173.04" height="173.04" width="160.85856106298442" id="textblock"><g><svg viewBox="0 0 160.85856106298442 173.04" height="173.04" width="160.85856106298442"><g transform="matrix(1,0,0,1,0,0)"><svg width="160.85856106298442" viewBox="-3.1166666666666667 -40.65 41.680098835294665 44.74074074074074" height="173.04" data-palette-color="#485c67"><path d="M5.65 0L5.65 0Q2.3-0.5 1.3-3.08 0.3-5.65 1.7-9.6L1.7-9.6 8.3-28.35Q9.2-30.95 10.38-32.8 11.55-34.65 13.33-35.65 15.1-36.65 17.75-36.65L17.75-36.65Q21.75-36.65 23.78-34.45 25.8-32.25 27.15-28.35L27.15-28.35 33.7-9.6Q35.1-5.65 34.23-3.08 33.35-0.5 29.95 0L29.95 0Q27.2 0.35 25.18-0.65 23.15-1.65 22.75-3.9L22.75-3.9Q22.45-5.4 22.68-6.4 22.9-7.4 23.1-8L23.1-8Q23.25-8.5 23.13-8.97 23-9.45 22.35-9.45L22.35-9.45 13.05-9.45Q12.4-9.45 12.28-8.97 12.15-8.5 12.35-8L12.35-8Q12.55-7.4 12.75-6.4 12.95-5.4 12.7-3.9L12.7-3.9Q12.3-1.65 10.35-0.65 8.4 0.35 5.65 0ZM14.1-16.45L21.4-16.45 18.8-24.6Q18.7-25.1 18.48-25.38 18.25-25.65 17.75-25.65L17.75-25.65Q17.25-25.65 17.03-25.38 16.8-25.1 16.65-24.6L16.65-24.6 14.1-16.45Z" opacity="1" transform="matrix(1,0,0,1,0,0)" fill="#485c67" class="wordmark-text-0" data-fill-palette-color="primary" id="text-0"></path></svg></g></svg></g></svg></g></svg></g></svg></g></svg></g></svg></g><g mask="url(#e301cf02-de97-43ba-a9ce-84431a6bd603)"><g transform="matrix(0.33451119418496117, 0, 0, 0.33451119418496117, 59.13773272810974, 1)"><svg xmlns="http://www.w3.org/2000/svg" xmlns:xlink="http://www.w3.org/1999/xlink" xml:space="preserve" version="1.1" style="shape-rendering:geometricPrecision;text-rendering:geometricPrecision;image-rendering:optimizeQuality;" viewBox="8.717090848679394 57 828.8049529083436 733.0098491843643" x="0" y="0" fill-rule="evenodd" clip-rule="evenodd" height="733.0098491843643" width="828.8049529083436" class="icon-none" data-fill-palette-color="accent" id="none"><g fill="#eeecea" data-fill-palette-color="accent"><path class="" d="M701 235L681 150C685 147 688 143 691 140 761 69 824 57 824 57 859 166 815 294 815 294 792 306 764 331 754 342 766 333 793 319 810 312 794 360 614 659 556 601 525 568 558 415 602 303 612 330 625 356 625 376 629 365 623 313 616 269 634 226 654 191 669 175 681 177 701 235 701 235M737 251C717 321 497 780 474 765 523 683 669 376 737 251" fill="#eeecea" data-fill-palette-color="accent"></path><path class="" d="M111 670C167 683 404 651 417 686 428 716 362 723 297 736 262 743 245 759 246 766 251 795 432 761 460 764 395 777 343 790 274 790 243 790 142 792 217 739 306 675 26 736 9 662 1 622 165 570 205 547 193 562 161 581 142 589 124 598 85 618 118 639 133 649 97 667 111 670" fill="#eeecea" data-fill-palette-color="accent"></path></g></svg></g></g></svg></g><defs></defs></svg><rect width="395.52" height="247.2" fill="none" stroke="none" visibility="hidden"></rect></g></svg></g></svg>